<svg width="420" height="472" viewBox="0 0 420 472" fill="none" xmlns="http://www.w3.org/2000/svg">
<path d="M369.416 303.25H51.584L210.5 28L369.416 303.25ZM84.4932 284.25H336.507L210.5 65.999L84.4932 284.25Z" fill="url(#paint0_linear_3_109)"/>
<path d="M369.938 303.25H201.063L285.5 157L369.938 303.25ZM233.971 284.25H337.029L285.5 194.999L233.971 284.25Z" fill="#0035B1"/>
<path d="M219.938 303.25H51.0625L135.5 157L219.938 303.25ZM83.9707 284.25H187.029L135.5 194.999L83.9707 284.25Z" fill="#206241"/>
<path d="M393 296C393 323.614 370.614 346 343 346C315.386 346 293 323.614 293 296C293 268.386 315.386 246 343 246C370.614 246 393 268.386 393 296Z" fill="#0035B1"/>
<path d="M127 296C127 323.614 104.614 346 77 346C49.3858 346 27 323.614 27 296C27 268.386 49.3858 246 77 246C104.614 246 127 268.386 127 296Z" fill="#206241"/>
<path d="M260 296C260 323.614 237.614 346 210 346C182.386 346 160 323.614 160 296C160 268.386 182.386 246 210 246C237.614 246 260 268.386 260 296Z" fill="#0035B1"/>
<path d="M185 173C185 200.614 162.614 223 135 223C107.386 223 85 200.614 85 173C85 145.386 107.386 123 135 123C162.614 123 185 145.386 185 173Z" fill="#206241"/>
<path d="M335 173C335 200.614 312.614 223 285 223C257.386 223 235 200.614 235 173C235 145.386 257.386 123 285 123C312.614 123 335 145.386 335 173Z" fill="#0035B1"/>
<path d="M260 50C260 77.6142 237.614 100 210 100C182.386 100 160 77.6142 160 50C160 22.3858 182.386 0 210 0C237.614 0 260 22.3858 260 50Z" fill="#60A83D"/>
<path d="M388.853 471V424.28H403.189C407.669 424.28 411.232 425.368 413.877 427.544C416.565 429.72 417.909 432.643 417.909 436.312C417.909 438.872 417.162 441.069 415.669 442.904C414.218 444.739 412.32 445.848 409.973 446.232V446.36C411.722 446.573 413.28 447.213 414.645 448.28C416.01 449.304 417.077 450.648 417.845 452.312C418.613 453.933 418.997 455.725 418.997 457.688C418.997 460.376 418.378 462.723 417.141 464.728C415.904 466.733 414.154 468.291 411.893 469.4C409.632 470.467 406.965 471 403.893 471H388.853ZM396.661 443.544H403.061C405.152 443.544 406.816 442.989 408.053 441.88C409.29 440.728 409.909 439.171 409.909 437.208C409.909 435.288 409.29 433.773 408.053 432.664C406.858 431.512 405.194 430.936 403.061 430.936H396.661V443.544ZM396.661 464.344H403.445C405.792 464.344 407.626 463.725 408.949 462.488C410.314 461.208 410.997 459.48 410.997 457.304C410.997 455.128 410.314 453.379 408.949 452.056C407.626 450.691 405.792 450.008 403.445 450.008H396.661V464.344Z" fill="#206241"/>
<path d="M367.95 471.64C363.385 471.64 359.801 470.403 357.198 467.928C354.638 465.411 353.358 461.997 353.358 457.688V424.28H361.422V457.624C361.422 459.843 361.977 461.571 363.086 462.808C364.195 464.045 365.817 464.664 367.95 464.664C370.041 464.664 371.641 464.045 372.75 462.808C373.902 461.571 374.478 459.843 374.478 457.624V424.28H382.542V457.688C382.542 461.997 381.262 465.411 378.702 467.928C376.142 470.403 372.558 471.64 367.95 471.64Z" fill="#206241"/>
<path d="M321.319 471V424.28H329.319V463.768H349.159V471H321.319Z" fill="#206241"/>
<path d="M298.112 471.64C295.083 471.64 292.459 471.085 290.24 469.976C288.021 468.824 286.293 467.224 285.056 465.176C283.861 463.085 283.264 460.632 283.264 457.816V437.464C283.264 434.648 283.861 432.216 285.056 430.168C286.293 428.077 288.021 426.477 290.24 425.368C292.459 424.216 295.083 423.64 298.112 423.64C301.099 423.64 303.701 424.216 305.92 425.368C308.139 426.477 309.867 428.077 311.104 430.168C312.341 432.216 312.96 434.648 312.96 437.464H304.896C304.896 435.288 304.299 433.624 303.104 432.472C301.952 431.277 300.288 430.68 298.112 430.68C295.936 430.68 294.251 431.277 293.056 432.472C291.861 433.624 291.264 435.288 291.264 437.464V457.816C291.264 459.992 291.861 461.677 293.056 462.872C294.251 464.024 295.936 464.6 298.112 464.6C300.288 464.6 301.952 464.024 303.104 462.872C304.299 461.677 304.896 459.992 304.896 457.816H312.96C312.96 460.632 312.341 463.085 311.104 465.176C309.867 467.224 308.139 468.824 305.92 469.976C303.701 471.085 301.099 471.64 298.112 471.64Z" fill="#206241"/>
<path d="M213.682 471V424.28H241.714V431.32H221.554V443.48H239.474V450.264H221.554V463.96H241.714V471H213.682Z" fill="#0035B1"/>
<path d="M192.587 471.64C189.558 471.64 186.934 471.085 184.715 469.976C182.496 468.824 180.768 467.224 179.531 465.176C178.336 463.085 177.739 460.632 177.739 457.816V437.464C177.739 434.648 178.336 432.216 179.531 430.168C180.768 428.077 182.496 426.477 184.715 425.368C186.934 424.216 189.558 423.64 192.587 423.64C195.574 423.64 198.176 424.216 200.395 425.368C202.614 426.477 204.342 428.077 205.579 430.168C206.816 432.216 207.435 434.648 207.435 437.464H199.371C199.371 435.288 198.774 433.624 197.579 432.472C196.427 431.277 194.763 430.68 192.587 430.68C190.411 430.68 188.726 431.277 187.531 432.472C186.336 433.624 185.739 435.288 185.739 437.464V457.816C185.739 459.992 186.336 461.677 187.531 462.872C188.726 464.024 190.411 464.6 192.587 464.6C194.763 464.6 196.427 464.024 197.579 462.872C198.774 461.677 199.371 459.992 199.371 457.816H207.435C207.435 460.632 206.816 463.085 205.579 465.176C204.342 467.224 202.614 468.824 200.395 469.976C198.176 471.085 195.574 471.64 192.587 471.64Z" fill="#0035B1"/>
<path d="M142.308 471V424.28H152.1L165.092 462.04C164.964 460.675 164.836 459.075 164.708 457.24C164.58 455.363 164.452 453.464 164.324 451.544C164.239 449.624 164.196 447.917 164.196 446.424V424.28H171.492V471H161.7L148.836 433.24C148.921 434.477 149.028 435.971 149.156 437.72C149.284 439.469 149.391 441.261 149.476 443.096C149.561 444.931 149.604 446.616 149.604 448.152V471H142.308Z" fill="#0035B1"/>
<path d="M108.157 471V424.28H136.189V431.32H116.029V443.48H133.949V450.264H116.029V463.96H136.189V471H108.157Z" fill="#0035B1"/>
<path d="M73.11 471V463.768H82.518V431.512H73.11V424.28H99.99V431.512H90.582V463.768H99.99V471H73.11Z" fill="#0035B1"/>
<path d="M51.887 471.64C48.8577 471.64 46.2337 471.085 44.015 469.976C41.7963 468.824 40.0683 467.224 38.831 465.176C37.6363 463.085 37.039 460.632 37.039 457.816V437.464C37.039 434.648 37.6363 432.216 38.831 430.168C40.0683 428.077 41.7963 426.477 44.015 425.368C46.2337 424.216 48.8577 423.64 51.887 423.64C54.8737 423.64 57.4763 424.216 59.695 425.368C61.9137 426.477 63.6417 428.077 64.879 430.168C66.1163 432.216 66.735 434.648 66.735 437.464H58.671C58.671 435.288 58.0737 433.624 56.879 432.472C55.727 431.277 54.063 430.68 51.887 430.68C49.711 430.68 48.0257 431.277 46.831 432.472C45.6363 433.624 45.039 435.288 45.039 437.464V457.816C45.039 459.992 45.6363 461.677 46.831 462.872C48.0257 464.024 49.711 464.6 51.887 464.6C54.063 464.6 55.727 464.024 56.879 462.872C58.0737 461.677 58.671 459.992 58.671 457.816H66.735C66.735 460.632 66.1163 463.085 64.879 465.176C63.6417 467.224 61.9137 468.824 59.695 469.976C57.4763 471.085 54.8737 471.64 51.887 471.64Z" fill="#0035B1"/>
<path d="M16.392 471.64C13.2347 471.64 10.4613 471.085 8.07201 469.976C5.72534 468.867 3.89068 467.288 2.56801 465.24C1.28801 463.149 0.64801 460.675 0.64801 457.816H8.52001C8.52001 459.907 9.22401 461.571 10.632 462.808C12.0827 464.045 14.0027 464.664 16.392 464.664C18.696 464.664 20.5093 464.067 21.832 462.872C23.1973 461.635 23.88 459.992 23.88 457.944C23.88 456.408 23.432 455.064 22.536 453.912C21.6827 452.717 20.4453 451.907 18.824 451.48L12.552 449.88C9.18134 449.027 6.51468 447.427 4.55201 445.08C2.58934 442.733 1.60801 439.939 1.60801 436.696C1.60801 432.728 2.90934 429.571 5.51201 427.224C8.11468 424.835 11.592 423.64 15.944 423.64C18.888 423.64 21.448 424.173 23.624 425.24C25.8427 426.307 27.5493 427.821 28.744 429.784C29.9387 431.704 30.536 433.965 30.536 436.568H22.728C22.728 434.776 22.1093 433.325 20.872 432.216C19.6347 431.107 17.992 430.552 15.944 430.552C13.9387 430.552 12.3387 431.107 11.144 432.216C9.99201 433.283 9.41601 434.691 9.41601 436.44C9.41601 437.891 9.82134 439.085 10.632 440.024C11.4853 440.963 12.6587 441.645 14.152 442.072L20.616 443.672C24.072 444.525 26.7813 446.232 28.744 448.792C30.7493 451.352 31.752 454.403 31.752 457.944C31.752 460.717 31.112 463.128 29.832 465.176C28.5947 467.224 26.824 468.824 24.52 469.976C22.216 471.085 19.5067 471.64 16.392 471.64Z" fill="#0035B1"/>
<path d="M388.853 413V366.28H403.573C406.688 366.28 409.376 366.856 411.637 368.008C413.941 369.16 415.733 370.781 417.013 372.872C418.293 374.92 418.933 377.352 418.933 380.168C418.933 383.283 418.165 386.013 416.629 388.36C415.093 390.664 413.024 392.307 410.421 393.288L419.573 413H410.805L402.613 394.44H396.789V413H388.853ZM396.789 387.4H403.573C405.834 387.4 407.605 386.781 408.885 385.544C410.165 384.307 410.805 382.6 410.805 380.424C410.805 378.248 410.144 376.52 408.821 375.24C407.541 373.96 405.792 373.32 403.573 373.32H396.789V387.4Z" fill="#0035B1"/>
<path d="M354.382 413V366.28H382.414V373.32H362.254V385.48H380.174V392.264H362.254V405.96H382.414V413H354.382Z" fill="#0035B1"/>
<path d="M328.743 413V373.512H316.519V366.28H349.031V373.512H336.807V413H328.743Z" fill="#0035B1"/>
<path d="M297.6 413.64C293.035 413.64 289.451 412.403 286.848 409.928C284.288 407.411 283.008 403.997 283.008 399.688V366.28H291.072V399.624C291.072 401.843 291.627 403.571 292.736 404.808C293.845 406.045 295.467 406.664 297.6 406.664C299.691 406.664 301.291 406.045 302.4 404.808C303.552 403.571 304.128 401.843 304.128 399.624V366.28H312.192V399.688C312.192 403.997 310.912 407.411 308.352 409.928C305.792 412.403 302.208 413.64 297.6 413.64Z" fill="#0035B1"/>
<path d="M248.153 413V366.28H263.705C266.82 366.28 269.529 366.877 271.833 368.072C274.18 369.267 275.993 370.952 277.273 373.128C278.553 375.261 279.193 377.779 279.193 380.68C279.193 383.581 278.553 386.12 277.273 388.296C275.993 390.429 274.18 392.093 271.833 393.288C269.529 394.483 266.82 395.08 263.705 395.08H256.153V413H248.153ZM256.153 388.04H263.705C265.966 388.04 267.758 387.357 269.081 385.992C270.404 384.627 271.065 382.856 271.065 380.68C271.065 378.504 270.404 376.733 269.081 375.368C267.758 374.003 265.966 373.32 263.705 373.32H256.153V388.04Z" fill="#0035B1"/>
<path d="M211.506 413V366.28H221.938L227.186 386.376L232.498 366.28H242.994V413H235.506V393.352C235.506 390.664 235.57 387.891 235.698 385.032C235.869 382.131 236.061 379.336 236.274 376.648C236.487 373.917 236.722 371.443 236.978 369.224L230.386 392.712H223.794L217.458 369.8C217.842 372.744 218.183 376.264 218.482 380.36C218.823 384.413 218.994 388.744 218.994 393.352V413H211.506Z" fill="#0035B1"/>
<path d="M192.075 413.64C187.595 413.64 184.032 412.36 181.387 409.8C178.784 407.24 177.483 403.699 177.483 399.176V380.104C177.483 375.581 178.784 372.04 181.387 369.48C184.032 366.92 187.595 365.64 192.075 365.64C196.555 365.64 200.096 366.92 202.699 369.48C205.344 372.04 206.667 375.56 206.667 380.04V399.176C206.667 403.699 205.344 407.24 202.699 409.8C200.096 412.36 196.555 413.64 192.075 413.64ZM192.075 406.6C194.251 406.6 195.894 406.024 197.003 404.872C198.112 403.677 198.667 401.992 198.667 399.816V379.464C198.667 377.288 198.112 375.624 197.003 374.472C195.894 373.277 194.251 372.68 192.075 372.68C189.899 372.68 188.256 373.277 187.147 374.472C186.038 375.624 185.483 377.288 185.483 379.464V399.816C185.483 401.992 186.038 403.677 187.147 404.872C188.256 406.024 189.899 406.6 192.075 406.6Z" fill="#0035B1"/>
<path d="M157.412 413.64C154.383 413.64 151.759 413.085 149.54 411.976C147.321 410.824 145.593 409.224 144.356 407.176C143.161 405.085 142.564 402.632 142.564 399.816V379.464C142.564 376.648 143.161 374.216 144.356 372.168C145.593 370.077 147.321 368.477 149.54 367.368C151.759 366.216 154.383 365.64 157.412 365.64C160.399 365.64 163.001 366.216 165.22 367.368C167.439 368.477 169.167 370.077 170.404 372.168C171.641 374.216 172.26 376.648 172.26 379.464H164.196C164.196 377.288 163.599 375.624 162.404 374.472C161.252 373.277 159.588 372.68 157.412 372.68C155.236 372.68 153.551 373.277 152.356 374.472C151.161 375.624 150.564 377.288 150.564 379.464V399.816C150.564 401.992 151.161 403.677 152.356 404.872C153.551 406.024 155.236 406.6 157.412 406.6C159.588 406.6 161.252 406.024 162.404 404.872C163.599 403.677 164.196 401.992 164.196 399.816H172.26C172.26 402.632 171.641 405.085 170.404 407.176C169.167 409.224 167.439 410.824 165.22 411.976C163.001 413.085 160.399 413.64 157.412 413.64Z" fill="#0035B1"/>
<path d="M86.55 413.64C81.9847 413.64 78.4007 412.403 75.798 409.928C73.238 407.411 71.958 403.997 71.958 399.688V366.28H80.022V399.624C80.022 401.843 80.5767 403.571 81.686 404.808C82.7954 406.045 84.4167 406.664 86.55 406.664C88.6407 406.664 90.2407 406.045 91.35 404.808C92.502 403.571 93.078 401.843 93.078 399.624V366.28H101.142V399.688C101.142 403.997 99.862 407.411 97.302 409.928C94.742 412.403 91.158 413.64 86.55 413.64Z" fill="#206241"/>
<path d="M37.039 413V366.28H45.039V385.352H50.543L59.439 366.28H68.079L57.583 388.552L68.591 413H59.695L50.479 392.328H45.039V413H37.039Z" fill="#206241"/>
<path d="M1.80001 413V366.28H15.688C18.8453 366.28 21.576 366.899 23.88 368.136C26.2267 369.331 28.04 371.016 29.32 373.192C30.6 375.368 31.24 377.928 31.24 380.872V398.344C31.24 401.288 30.6 403.869 29.32 406.088C28.04 408.264 26.2267 409.971 23.88 411.208C21.576 412.403 18.8453 413 15.688 413H1.80001ZM9.80001 405.832H15.688C17.992 405.832 19.8267 405.171 21.192 403.848C22.5573 402.483 23.24 400.648 23.24 398.344V380.872C23.24 378.611 22.5573 376.819 21.192 375.496C19.8267 374.131 17.992 373.448 15.688 373.448H9.80001V405.832Z" fill="#206241"/>
<defs>
<linearGradient id="paint0_linear_3_109" x1="210.111" y1="0" x2="210.111" y2="628.853" gradientUnits="userSpaceOnUse">
<stop offset="0.182692" stop-color="#60A83D"/>
<stop offset="0.389423" stop-color="#FEFFFD"/>
</linearGradient>
</defs>
</svg>
