<svg width="886" height="266" viewBox="0 0 886 266" fill="none" xmlns="http://www.w3.org/2000/svg">
<path d="M264.757 200.76H99.7622L182.26 57.5665L264.757 200.76ZM116.846 190.876H247.673L182.26 77.3348L116.846 190.876Z" fill="url(#paint0_linear_1_61)"/>
<path d="M265.028 200.76H177.36L221.194 124.676L265.028 200.76ZM194.444 190.876H247.944L221.194 144.445L194.444 190.876Z" fill="#0A42C3"/>
<path d="M187.159 200.76H99.4915L143.325 124.676L187.159 200.76ZM116.575 190.876H170.075L143.325 144.445L116.575 190.876Z" fill="#107C46"/>
<path d="M277 196.988C277 211.354 265.379 223 251.044 223C236.708 223 225.087 211.354 225.087 196.988C225.087 182.623 236.708 170.977 251.044 170.977C265.379 170.977 277 182.623 277 196.988Z" fill="#0A42C3"/>
<path d="M138.913 196.988C138.913 211.354 127.292 223 112.956 223C98.621 223 87 211.354 87 196.988C87 182.623 98.621 170.977 112.956 170.977C127.292 170.977 138.913 182.623 138.913 196.988Z" fill="#107C46"/>
<path d="M207.956 196.988C207.956 211.354 196.335 223 182 223C167.665 223 156.044 211.354 156.044 196.988C156.044 182.623 167.665 170.977 182 170.977C196.335 170.977 207.956 182.623 207.956 196.988Z" fill="#0A42C3"/>
<path d="M169.022 133C169.022 147.366 157.401 159.012 143.066 159.012C128.73 159.012 117.109 147.366 117.109 133C117.109 118.634 128.73 106.988 143.066 106.988C157.401 106.988 169.022 118.634 169.022 133Z" fill="#107C46"/>
<path d="M246.891 133C246.891 147.366 235.27 159.012 220.934 159.012C206.599 159.012 194.978 147.366 194.978 133C194.978 118.634 206.599 106.988 220.934 106.988C235.27 106.988 246.891 118.634 246.891 133Z" fill="#0A42C3"/>
<path d="M207.956 69.0116C207.956 83.3773 196.335 95.0231 182 95.0231C167.665 95.0231 156.044 83.3773 156.044 69.0116C156.044 54.6458 167.665 43 182 43C196.335 43 207.956 54.6458 207.956 69.0116Z" fill="#60A83D"/>
<path d="M300.665 126V82.096H316.409C318.841 82.096 321.102 82.4373 323.193 83.12C325.326 83.76 327.182 84.784 328.761 86.192C330.339 87.6 331.577 89.4347 332.472 91.696C333.369 93.9147 333.817 96.5813 333.817 99.696V108.4C333.817 111.472 333.369 114.139 332.472 116.4C331.577 118.619 330.339 120.432 328.761 121.84C327.182 123.248 325.326 124.293 323.193 124.976C321.102 125.659 318.841 126 316.409 126H300.665ZM308.601 119.792H315.833C317.753 119.792 319.459 119.472 320.953 118.832C322.446 118.192 323.619 117.104 324.473 115.568C325.326 113.989 325.753 111.792 325.753 108.976V99.056C325.753 96.3253 325.326 94.1707 324.473 92.592C323.619 91.0133 322.446 89.904 320.953 89.264C319.459 88.5813 317.753 88.24 315.833 88.24H308.601V119.792ZM339.415 126V82.096H347.031V105.328L363.863 82.096H372.055L358.103 102.64L372.694 126H363.927L352.151 107.504L347.031 114.288V126H339.415ZM392.309 126.64C387.658 126.64 384.031 125.36 381.429 122.8C378.826 120.197 377.525 116.592 377.525 111.984V82.096H385.141V111.984C385.141 114.672 385.823 116.763 387.189 118.256C388.597 119.749 390.538 120.496 393.013 120.496C395.53 120.496 397.471 119.749 398.837 118.256C400.202 116.763 400.885 114.672 400.885 111.984V82.096H408.501V111.984C408.501 116.592 407.199 120.197 404.597 122.8C401.994 125.36 398.367 126.64 393.717 126.64H392.309ZM469.376 126.64C466.986 126.64 464.768 126.299 462.72 125.616C460.714 124.891 458.944 123.76 457.408 122.224C455.914 120.688 454.741 118.704 453.888 116.272C453.077 113.797 452.672 110.811 452.672 107.312V100.848C452.672 97.3493 453.098 94.3627 453.952 91.888C454.805 89.4133 455.978 87.408 457.472 85.872C459.008 84.336 460.778 83.2267 462.784 82.544C464.789 81.8187 466.965 81.456 469.312 81.456H470.464C473.749 81.456 476.565 82.1173 478.912 83.44C481.301 84.72 483.136 86.6613 484.416 89.264C485.696 91.8667 486.336 95.1307 486.336 99.056H478.848C478.848 96.4107 478.57 94.256 478.016 92.592C477.461 90.8853 476.522 89.6267 475.2 88.816C473.877 88.0053 472.064 87.6 469.76 87.6C468.48 87.6 467.285 87.792 466.176 88.176C465.109 88.56 464.17 89.2 463.36 90.096C462.549 90.9493 461.909 92.1227 461.44 93.616C460.97 95.1093 460.736 96.9867 460.736 99.248V108.784C460.736 111.045 460.97 112.944 461.44 114.48C461.909 115.973 462.549 117.168 463.36 118.064C464.17 118.917 465.109 119.536 466.176 119.92C467.285 120.304 468.48 120.496 469.76 120.496C473.216 120.496 475.626 119.6 476.992 117.808C478.4 115.973 479.104 113.072 479.104 109.104H486.336C486.336 112.859 485.696 116.037 484.416 118.64C483.136 121.243 481.322 123.227 478.976 124.592C476.629 125.957 473.813 126.64 470.528 126.64H469.376ZM508.126 126.64C505.736 126.64 503.518 126.299 501.47 125.616C499.464 124.891 497.694 123.76 496.158 122.224C494.664 120.688 493.491 118.704 492.638 116.272C491.827 113.797 491.422 110.811 491.422 107.312V100.848C491.422 97.3493 491.848 94.3627 492.702 91.888C493.555 89.4133 494.728 87.408 496.222 85.872C497.758 84.336 499.528 83.2267 501.534 82.544C503.539 81.8187 505.715 81.456 508.062 81.456H509.214C511.603 81.456 513.8 81.8187 515.806 82.544C517.854 83.2693 519.624 84.4 521.118 85.936C522.611 87.472 523.763 89.4773 524.574 91.952C525.427 94.384 525.854 97.3493 525.854 100.848V107.312C525.854 110.768 525.427 113.733 524.574 116.208C523.763 118.64 522.611 120.624 521.118 122.16C519.624 123.696 517.875 124.827 515.87 125.552C513.864 126.277 511.667 126.64 509.278 126.64H508.126ZM508.638 120.496C509.918 120.496 511.112 120.304 512.222 119.92C513.374 119.536 514.355 118.917 515.166 118.064C516.019 117.168 516.68 115.973 517.15 114.48C517.619 112.944 517.854 111.045 517.854 108.784V99.248C517.854 96.9867 517.619 95.1093 517.15 93.616C516.68 92.1227 516.019 90.9493 515.166 90.096C514.355 89.2 513.374 88.56 512.222 88.176C511.112 87.792 509.918 87.6 508.638 87.6C507.358 87.6 506.163 87.792 505.054 88.176C503.944 88.56 502.963 89.2 502.11 90.096C501.299 90.9493 500.659 92.1227 500.19 93.616C499.72 95.1093 499.486 96.9867 499.486 99.248V108.784C499.486 111.045 499.72 112.944 500.19 114.48C500.659 115.973 501.299 117.168 502.11 118.064C502.963 118.917 503.944 119.536 505.054 119.92C506.163 120.304 507.358 120.496 508.638 120.496ZM531.58 126V82.096H541.756L547.196 114.8H547.452L553.084 82.096H563.196V126H556.22V91.248H555.9L550.076 126H543.804L538.108 91.248H537.788V126H531.58ZM571.29 126V82.096H591.194C593.54 82.096 595.652 82.672 597.53 83.824C599.45 84.9333 600.986 86.448 602.138 88.368C603.29 90.2453 603.866 92.336 603.866 94.64V95.408C603.866 97.712 603.29 99.8453 602.138 101.808C600.986 103.728 599.45 105.264 597.53 106.416C595.652 107.568 593.54 108.144 591.194 108.144H579.034V126H571.29ZM579.034 101.936H589.21C590.49 101.936 591.62 101.637 592.602 101.04C593.626 100.443 594.436 99.632 595.034 98.608C595.631 97.584 595.93 96.4107 595.93 95.088C595.93 93.8507 595.631 92.72 595.034 91.696C594.479 90.6293 593.69 89.7973 592.666 89.2C591.684 88.56 590.532 88.24 589.21 88.24H579.034V101.936ZM624.184 126.64C619.533 126.64 615.906 125.36 613.304 122.8C610.701 120.197 609.4 116.592 609.4 111.984V82.096H617.016V111.984C617.016 114.672 617.698 116.763 619.064 118.256C620.472 119.749 622.413 120.496 624.888 120.496C627.405 120.496 629.346 119.749 630.712 118.256C632.077 116.763 632.76 114.672 632.76 111.984V82.096H640.376V111.984C640.376 116.592 639.074 120.197 636.472 122.8C633.869 125.36 630.242 126.64 625.592 126.64H624.184ZM659.734 126V88.496H646.549V82.096H680.726V88.496H667.542V126H659.734ZM688.436 126V82.096H717.62L716.66 88.304H696.244V100.528H714.932V106.608H696.244V119.6H716.979L717.94 126H688.436ZM756.498 126.384C755.303 126.384 754.172 126.171 753.106 125.744C752.082 125.275 751.25 124.443 750.61 123.248C750.012 122.053 749.714 120.347 749.714 118.128C749.714 116.251 749.5 114.672 749.074 113.392C748.69 112.069 748.156 111.024 747.474 110.256C746.834 109.445 746.087 108.848 745.234 108.464C744.38 108.08 743.506 107.888 742.61 107.888H734.034V126H726.29V82.096H745.81C748.199 82.096 750.332 82.5867 752.21 83.568C754.13 84.5067 755.623 85.8293 756.69 87.536C757.799 89.2427 758.354 91.2693 758.354 93.616C758.354 96.3467 757.65 98.7147 756.242 100.72C754.834 102.683 752.978 103.899 750.674 104.368V104.688C752.21 105.115 753.468 105.861 754.45 106.928C755.474 107.995 756.242 109.296 756.754 110.832C757.266 112.325 757.522 113.925 757.522 115.632C757.522 118.491 757.756 120.496 758.226 121.648C758.695 122.8 759.548 123.547 760.786 123.888V125.68C760.231 125.936 759.57 126.107 758.802 126.192C758.076 126.32 757.308 126.384 756.498 126.384ZM734.034 101.808H743.634C745.938 101.808 747.687 101.147 748.882 99.824C750.076 98.4587 750.674 96.7733 750.674 94.768C750.674 92.7627 750.098 91.184 748.946 90.032C747.794 88.8373 746.151 88.24 744.018 88.24H734.034V101.808ZM315.449 184.64C313.187 184.64 311.033 184.405 308.985 183.936C306.937 183.424 305.123 182.656 303.545 181.632C301.966 180.565 300.707 179.2 299.769 177.536C298.873 175.829 298.424 173.781 298.424 171.392C298.424 171.179 298.424 170.965 298.424 170.752C298.424 170.496 298.446 170.261 298.489 170.048H305.849C305.806 170.261 305.785 170.475 305.785 170.688C305.785 170.901 305.785 171.115 305.785 171.328C305.785 172.907 306.169 174.229 306.937 175.296C307.705 176.32 308.793 177.088 310.201 177.6C311.651 178.112 313.358 178.368 315.321 178.368C317.283 178.368 318.947 178.155 320.313 177.728C321.678 177.301 322.723 176.619 323.449 175.68C324.217 174.699 324.601 173.44 324.601 171.904C324.601 170.453 324.131 169.301 323.193 168.448C322.297 167.552 321.102 166.848 319.609 166.336C318.115 165.781 316.473 165.291 314.681 164.864C312.931 164.395 311.161 163.883 309.369 163.328C307.577 162.773 305.934 162.048 304.441 161.152C302.947 160.213 301.731 158.976 300.793 157.44C299.897 155.904 299.449 153.963 299.449 151.616C299.449 148.843 300.195 146.56 301.689 144.768C303.182 142.976 305.145 141.653 307.577 140.8C310.051 139.904 312.761 139.456 315.705 139.456C318.606 139.456 321.251 139.883 323.641 140.736C326.03 141.589 327.929 142.933 329.337 144.768C330.787 146.56 331.513 148.907 331.513 151.808V152.64H324.281V151.744C324.281 150.421 323.918 149.291 323.193 148.352C322.51 147.413 321.529 146.709 320.249 146.24C318.969 145.728 317.454 145.472 315.705 145.472C314.083 145.472 312.633 145.664 311.353 146.048C310.115 146.432 309.134 147.029 308.409 147.84C307.726 148.651 307.385 149.717 307.385 151.04C307.385 152.448 307.833 153.579 308.729 154.432C309.625 155.243 310.819 155.904 312.312 156.416C313.806 156.885 315.449 157.333 317.241 157.76C319.033 158.187 320.825 158.677 322.617 159.232C324.409 159.744 326.051 160.469 327.545 161.408C329.038 162.304 330.254 163.52 331.193 165.056C332.131 166.549 332.601 168.469 332.601 170.816C332.601 174.144 331.854 176.832 330.361 178.88C328.867 180.885 326.819 182.357 324.217 183.296C321.657 184.192 318.734 184.64 315.449 184.64ZM353.751 184.64C351.361 184.64 349.143 184.299 347.095 183.616C345.089 182.891 343.319 181.76 341.783 180.224C340.289 178.688 339.116 176.704 338.263 174.272C337.452 171.797 337.047 168.811 337.047 165.312V158.848C337.047 155.349 337.473 152.363 338.327 149.888C339.18 147.413 340.353 145.408 341.847 143.872C343.383 142.336 345.153 141.227 347.159 140.544C349.164 139.819 351.34 139.456 353.687 139.456H354.839C358.124 139.456 360.94 140.117 363.287 141.44C365.676 142.72 367.511 144.661 368.791 147.264C370.071 149.867 370.711 153.131 370.711 157.056H363.223C363.223 154.411 362.945 152.256 362.391 150.592C361.836 148.885 360.897 147.627 359.575 146.816C358.252 146.005 356.439 145.6 354.135 145.6C352.855 145.6 351.66 145.792 350.551 146.176C349.484 146.56 348.545 147.2 347.735 148.096C346.924 148.949 346.284 150.123 345.815 151.616C345.345 153.109 345.111 154.987 345.111 157.248V166.784C345.111 169.045 345.345 170.944 345.815 172.48C346.284 173.973 346.924 175.168 347.735 176.064C348.545 176.917 349.484 177.536 350.551 177.92C351.66 178.304 352.855 178.496 354.135 178.496C357.591 178.496 360.001 177.6 361.367 175.808C362.775 173.973 363.479 171.072 363.479 167.104H370.711C370.711 170.859 370.071 174.037 368.791 176.64C367.511 179.243 365.697 181.227 363.351 182.592C361.004 183.957 358.188 184.64 354.903 184.64H353.751ZM380.085 184V178.048H389.045V146.048H380.085V140.096H405.941V146.048H396.981V178.048H405.941V184H380.085ZM417.811 184V140.096H446.995L446.035 146.304H425.619V158.528H444.307V164.608H425.619V177.6H446.354L447.315 184H417.811ZM455.665 184V140.096H463.281L475.633 164.928L477.873 169.856H478.129V140.096H485.361V184H477.745L465.009 158.784L463.153 154.432L462.897 154.496V184H455.665ZM508.751 184.64C506.361 184.64 504.143 184.299 502.095 183.616C500.089 182.891 498.319 181.76 496.783 180.224C495.289 178.688 494.116 176.704 493.263 174.272C492.452 171.797 492.047 168.811 492.047 165.312V158.848C492.047 155.349 492.473 152.363 493.327 149.888C494.18 147.413 495.353 145.408 496.847 143.872C498.383 142.336 500.153 141.227 502.159 140.544C504.164 139.819 506.34 139.456 508.687 139.456H509.839C513.124 139.456 515.94 140.117 518.287 141.44C520.676 142.72 522.511 144.661 523.791 147.264C525.071 149.867 525.711 153.131 525.711 157.056H518.223C518.223 154.411 517.945 152.256 517.391 150.592C516.836 148.885 515.897 147.627 514.575 146.816C513.252 146.005 511.439 145.6 509.135 145.6C507.855 145.6 506.66 145.792 505.551 146.176C504.484 146.56 503.545 147.2 502.735 148.096C501.924 148.949 501.284 150.123 500.815 151.616C500.345 153.109 500.111 154.987 500.111 157.248V166.784C500.111 169.045 500.345 170.944 500.815 172.48C501.284 173.973 501.924 175.168 502.735 176.064C503.545 176.917 504.484 177.536 505.551 177.92C506.66 178.304 507.855 178.496 509.135 178.496C512.591 178.496 515.001 177.6 516.367 175.808C517.775 173.973 518.479 171.072 518.479 167.104H525.711C525.711 170.859 525.071 174.037 523.791 176.64C522.511 179.243 520.697 181.227 518.351 182.592C516.004 183.957 513.188 184.64 509.903 184.64H508.751ZM534.061 184V140.096H563.245L562.285 146.304H541.869V158.528H560.557V164.608H541.869V177.6H562.604L563.565 184H534.061ZM624.376 184.64C621.986 184.64 619.768 184.299 617.72 183.616C615.714 182.891 613.944 181.76 612.408 180.224C610.914 178.688 609.741 176.704 608.888 174.272C608.077 171.797 607.672 168.811 607.672 165.312V158.848C607.672 155.349 608.098 152.363 608.952 149.888C609.805 147.413 610.978 145.408 612.472 143.872C614.008 142.336 615.778 141.227 617.784 140.544C619.789 139.819 621.965 139.456 624.312 139.456H625.464C628.749 139.456 631.565 140.117 633.912 141.44C636.301 142.72 638.136 144.661 639.416 147.264C640.696 149.867 641.336 153.131 641.336 157.056H633.848C633.848 154.411 633.57 152.256 633.016 150.592C632.461 148.885 631.522 147.627 630.2 146.816C628.877 146.005 627.064 145.6 624.76 145.6C623.48 145.6 622.285 145.792 621.176 146.176C620.109 146.56 619.17 147.2 618.36 148.096C617.549 148.949 616.909 150.123 616.44 151.616C615.97 153.109 615.736 154.987 615.736 157.248V166.784C615.736 169.045 615.97 170.944 616.44 172.48C616.909 173.973 617.549 175.168 618.36 176.064C619.17 176.917 620.109 177.536 621.176 177.92C622.285 178.304 623.48 178.496 624.76 178.496C628.216 178.496 630.626 177.6 631.992 175.808C633.4 173.973 634.104 171.072 634.104 167.104H641.336C641.336 170.859 640.696 174.037 639.416 176.64C638.136 179.243 636.322 181.227 633.976 182.592C631.629 183.957 628.813 184.64 625.528 184.64H624.376ZM650.71 184V140.096H658.582V177.536H677.846L678.806 184H650.71ZM701.684 184.64C697.033 184.64 693.406 183.36 690.804 180.8C688.201 178.197 686.9 174.592 686.9 169.984V140.096H694.516V169.984C694.516 172.672 695.198 174.763 696.564 176.256C697.972 177.749 699.913 178.496 702.388 178.496C704.905 178.496 706.846 177.749 708.212 176.256C709.577 174.763 710.26 172.672 710.26 169.984V140.096H717.876V169.984C717.876 174.592 716.574 178.197 713.972 180.8C711.369 183.36 707.742 184.64 703.092 184.64H701.684ZM726.29 184V140.096H745.17C747.559 140.096 749.607 140.544 751.314 141.44C753.02 142.336 754.343 143.595 755.282 145.216C756.22 146.795 756.69 148.608 756.69 150.656C756.69 152.832 756.306 154.624 755.538 156.032C754.77 157.44 753.788 158.549 752.594 159.36C751.399 160.128 750.183 160.683 748.946 161.024V161.408C749.799 161.536 750.716 161.813 751.698 162.24C752.722 162.667 753.682 163.285 754.578 164.096C755.516 164.907 756.263 165.995 756.818 167.36C757.415 168.683 757.714 170.325 757.714 172.288C757.714 174.507 757.18 176.512 756.114 178.304C755.09 180.053 753.66 181.44 751.826 182.464C749.991 183.488 747.9 184 745.554 184H726.29ZM733.586 177.792H743.57C744.85 177.792 745.98 177.493 746.962 176.896C747.943 176.299 748.69 175.488 749.202 174.464C749.756 173.44 750.034 172.331 750.034 171.136C750.034 169.771 749.735 168.597 749.138 167.616C748.583 166.635 747.815 165.888 746.834 165.376C745.852 164.821 744.764 164.544 743.57 164.544H733.586V177.792ZM733.586 158.656H742.866C744.06 158.656 745.127 158.379 746.066 157.824C747.004 157.269 747.73 156.501 748.242 155.52C748.796 154.496 749.074 153.365 749.074 152.128C749.074 150.165 748.583 148.651 747.602 147.584C746.663 146.517 745.276 145.984 743.442 145.984H733.586V158.656Z" fill="#2C2C2C"/>
<defs>
<linearGradient id="paint0_linear_1_61" x1="182" y1="43" x2="182" y2="283" gradientUnits="userSpaceOnUse">
<stop offset="0.182692" stop-color="#60A83D"/>
<stop offset="0.389423" stop-color="#FEFFFD"/>
<stop offset="0.447115" stop-color="#FEFFFD" stop-opacity="0"/>
</linearGradient>
</defs>
</svg>
